<svg width="49" height="36" viewBox="0 0 49 36" fill="none" xmlns="http://www.w3.org/2000/svg">
<g clip-path="url(#clip0_335_2806)">
<path d="M27.2816 18.0106V22.3252H9.71838V18.0106C9.71838 17.6014 10.0435 17.2688 10.4541 17.2646H26.5459C26.9565 17.2688 27.2816 17.6014 27.2816 18.0106Z" fill="#5C4178"/>
<path d="M26.4604 31.0993C26.7085 30.8477 26.8453 30.5066 26.8453 30.1528C26.8453 29.7989 26.6999 29.4621 26.4475 29.2148C25.7289 28.4815 25.3611 27.4754 25.4338 26.4522C25.4509 26.0983 25.3268 25.753 25.0916 25.4929C24.8563 25.2286 24.5227 25.0751 24.1676 25.0538C20.8398 25.0069 24.0137 33.4058 26.4604 31.1035V31.0993Z" fill="#DDAD26"/>
<path d="M12.4303 31.1163C13.7221 30.0974 15.664 25.2243 12.8366 25.0538C12.4816 25.0708 12.1522 25.2286 11.9127 25.4929C11.6774 25.7572 11.5534 26.1026 11.5705 26.4522C11.6432 27.4754 11.2754 28.4815 10.5568 29.2148C10.0477 29.735 10.052 30.5621 10.561 31.0822C11.07 31.5981 11.9042 31.6151 12.4303 31.1163Z" fill="#DDAD26"/>
<path d="M19.8346 30.1655V26.3796C19.826 25.6506 19.2272 25.0665 18.5 25.0665C17.7728 25.0665 17.174 25.6506 17.1654 26.3796V30.1655C17.174 30.8946 17.7728 31.4787 18.5 31.4787C19.2272 31.4787 19.826 30.8946 19.8346 30.1655Z" fill="#DDAD26"/>
<path d="M33.5096 4.5H3.4904C1.56127 4.5 0 6.05613 0 7.97892V18.8505C0 20.7691 1.56127 22.3252 3.4904 22.3295H7.04497V18.0149C7.04497 16.1348 8.56775 14.6085 10.4541 14.6042H26.5459C28.4323 14.6085 29.9593 16.1348 29.955 18.0149V22.3295H33.5096C35.4344 22.3295 36.9957 20.7733 37 18.8505V7.97892C37 6.0604 35.4387 4.50426 33.5096 4.5ZM25.5065 11.2148C24.7879 11.1892 24.2147 10.6009 24.2147 9.88465C24.2147 9.1684 24.7879 8.57579 25.5065 8.55448C26.2251 8.58006 26.7983 9.1684 26.7983 9.88465C26.7983 10.6009 26.2251 11.1935 25.5065 11.2148ZM30.186 11.2148C29.4631 11.1892 28.8942 10.5966 28.8942 9.88039C28.8942 9.16414 29.4631 8.57153 30.186 8.55021C30.9046 8.57153 31.4778 9.16414 31.4778 9.88039C31.4778 10.5966 30.9046 11.1892 30.186 11.2148Z" fill="#5C4178"/>
</g>
<defs>
<clipPath id="clip0_335_2806">
<rect width="37" height="27" fill="white" transform="translate(0 4.5)"/>
</clipPath>
</defs>
</svg>
