<svg width="40" height="40" viewBox="0 0 40 40" fill="none" xmlns="http://www.w3.org/2000/svg">
<path d="M0 20C0 8.95431 8.95431 0 20 0C31.0457 0 40 8.95431 40 20C40 31.0457 31.0457 40 20 40C8.95431 40 0 31.0457 0 20Z" fill="#EEEEEE"/>
<path d="M13 23C12.06 23 11.19 23.33 10.5 23.88C9.58 24.61 9 25.74 9 27C9 27.75 9.21 28.46 9.58 29.06C10.27 30.22 11.54 31 13 31C14.01 31 14.93 30.63 15.63 30C15.94 29.74 16.21 29.42 16.42 29.06C16.79 28.46 17 27.75 17 27C17 24.79 15.21 23 13 23ZM15.07 26.57L12.94 28.54C12.8 28.67 12.61 28.74 12.43 28.74C12.24 28.74 12.05 28.67 11.9 28.52L10.91 27.53C10.62 27.24 10.62 26.76 10.91 26.47C11.2 26.18 11.68 26.18 11.97 26.47L12.45 26.95L14.05 25.47C14.35 25.19 14.83 25.21 15.11 25.51C15.39 25.81 15.37 26.29 15.07 26.57Z" fill="#70B081"/>
<path opacity="0.4" d="M27.48 20.95H29.5V19.51C29.5 17.44 27.81 15.75 25.74 15.75H14.26C12.19 15.75 10.5 17.44 10.5 19.51V23.88C11.19 23.33 12.06 23 13 23C15.21 23 17 24.79 17 27C17 27.75 16.79 28.46 16.42 29.06C16.21 29.42 15.94 29.74 15.63 30H25.74C27.81 30 29.5 28.31 29.5 26.24V25.05H27.6C26.52 25.05 25.53 24.26 25.44 23.18C25.38 22.55 25.62 21.96 26.04 21.55C26.41 21.17 26.92 20.95 27.48 20.95Z" fill="#70B081"/>
<path d="M22.85 11.9501V15.7501H14.26C12.19 15.7501 10.5 17.4401 10.5 19.5101V15.8401C10.5 14.6501 11.23 13.5901 12.34 13.1701L20.28 10.1701C21.52 9.71009 22.85 10.6201 22.85 11.9501Z" fill="#70B081"/>
<path d="M30.5598 21.9699V24.03C30.5598 24.58 30.1198 25.0299 29.5598 25.0499H27.5998C26.5198 25.0499 25.5298 24.2599 25.4398 23.1799C25.3798 22.5499 25.6198 21.9599 26.0398 21.5499C26.4098 21.1699 26.9198 20.95 27.4798 20.95H29.5598C30.1198 20.97 30.5598 21.4199 30.5598 21.9699Z" fill="#70B081"/>
<path d="M22 20.75H15C14.59 20.75 14.25 20.41 14.25 20C14.25 19.59 14.59 19.25 15 19.25H22C22.41 19.25 22.75 19.59 22.75 20C22.75 20.41 22.41 20.75 22 20.75Z" fill="#70B081"/>
</svg>
