<svg width="65" height="64" viewBox="0 0 65 64" fill="none" xmlns="http://www.w3.org/2000/svg">
<g filter="url(#filter0_d_250_1577)">
<rect x="8.5" y="4" width="48" height="48" rx="24" fill="#FAFAFA"/>
<path d="M41.8729 32.68C41.3554 33.8294 41.106 34.3431 40.4404 35.3575C39.5085 36.775 38.1942 38.545 36.5704 38.5562C35.1248 38.5694 34.7517 37.6131 32.7885 37.63C30.8273 37.6394 30.4185 38.575 28.971 38.56C27.3454 38.545 26.1023 36.9512 25.1704 35.5356C22.5642 31.5662 22.2885 26.9125 23.8992 24.4375C25.0392 22.6825 26.841 21.6512 28.5342 21.6512C30.2592 21.6512 31.3429 22.5981 32.7679 22.5981C34.1517 22.5981 34.9935 21.6494 36.9885 21.6494C38.496 21.6494 40.0898 22.4706 41.2298 23.8881C37.5023 25.9319 38.1079 31.255 41.8729 32.68ZM35.4735 20.065C36.1992 19.1331 36.7504 17.8187 36.5498 16.48C35.3667 16.5606 33.9829 17.3162 33.1748 18.295C32.4417 19.1875 31.8342 20.5112 32.0704 21.7919C33.3623 21.8331 34.6992 21.0625 35.4735 20.065Z" fill="black"/>
</g>
<defs>
<filter id="filter0_d_250_1577" x="0.5" y="0" width="64" height="64" filterUnits="userSpaceOnUse" color-interpolation-filters="sRGB">
<feFlood flood-opacity="0" result="BackgroundImageFix"/>
<feColorMatrix in="SourceAlpha" type="matrix" values="0 0 0 0 0 0 0 0 0 0 0 0 0 0 0 0 0 0 127 0" result="hardAlpha"/>
<feOffset dy="4"/>
<feGaussianBlur stdDeviation="4"/>
<feComposite in2="hardAlpha" operator="out"/>
<feColorMatrix type="matrix" values="0 0 0 0 0 0 0 0 0 0 0 0 0 0 0 0 0 0 0.08 0"/>
<feBlend mode="normal" in2="BackgroundImageFix" result="effect1_dropShadow_250_1577"/>
<feBlend mode="normal" in="SourceGraphic" in2="effect1_dropShadow_250_1577" result="shape"/>
</filter>
</defs>
</svg>
