<svg width="25" height="25" viewBox="0 0 25 25" fill="none" xmlns="http://www.w3.org/2000/svg">
<path d="M17.5 4.06V2.5C17.5 2.09 17.16 1.75 16.75 1.75C16.34 1.75 16 2.09 16 2.5V4H9.50001V2.5C9.50001 2.09 9.16001 1.75 8.75001 1.75C8.34001 1.75 8.00001 2.09 8.00001 2.5V4.06C5.30001 4.31 3.99002 5.92 3.79002 8.31C3.77002 8.6 4.01002 8.84 4.29002 8.84H21.21C21.5 8.84 21.74 8.59 21.71 8.31C21.51 5.92 20.2 4.31 17.5 4.06Z" fill="#6F6F6F"/>
<path opacity="0.4" d="M20.75 10.34C21.3 10.34 21.75 10.79 21.75 11.34V17.5C21.75 20.5 20.25 22.5 16.75 22.5H8.75C5.25 22.5 3.75 20.5 3.75 17.5V11.34C3.75 10.79 4.2 10.34 4.75 10.34H20.75Z" fill="#6F6F6F"/>
<path d="M9.25 15.5C9.12 15.5 8.99 15.47 8.87 15.42C8.75 15.37 8.64001 15.3 8.54001 15.21C8.45001 15.11 8.37999 15 8.32999 14.88C8.27999 14.76 8.25 14.63 8.25 14.5C8.25 14.37 8.27999 14.24 8.32999 14.12C8.37999 14 8.45001 13.89 8.54001 13.79C8.64001 13.7 8.75 13.63 8.87 13.58C9.11 13.48 9.39 13.48 9.63 13.58C9.75 13.63 9.85999 13.7 9.95999 13.79C10.05 13.89 10.12 14 10.17 14.12C10.22 14.24 10.25 14.37 10.25 14.5C10.25 14.63 10.22 14.76 10.17 14.88C10.12 15 10.05 15.11 9.95999 15.21C9.85999 15.3 9.75 15.37 9.63 15.42C9.51 15.47 9.38 15.5 9.25 15.5Z" fill="#6F6F6F"/>
<path d="M12.75 15.5001C12.62 15.5001 12.49 15.4701 12.37 15.4201C12.25 15.3701 12.14 15.3001 12.04 15.2101C11.86 15.0201 11.75 14.7601 11.75 14.5001C11.75 14.2401 11.86 13.9801 12.04 13.7901C12.14 13.7001 12.25 13.6301 12.37 13.5801C12.61 13.4701 12.89 13.4701 13.13 13.5801C13.25 13.6301 13.36 13.7001 13.46 13.7901C13.64 13.9801 13.75 14.2401 13.75 14.5001C13.75 14.7601 13.64 15.0201 13.46 15.2101C13.36 15.3001 13.25 15.3701 13.13 15.4201C13.01 15.4701 12.88 15.5001 12.75 15.5001Z" fill="#6F6F6F"/>
<path d="M9.25 19C9.12 19 8.99 18.97 8.87 18.92C8.75 18.87 8.64001 18.8 8.54001 18.71C8.36001 18.52 8.25 18.26 8.25 18C8.25 17.74 8.36001 17.48 8.54001 17.29C8.64001 17.2 8.75 17.13 8.87 17.08C9.11 16.98 9.39 16.98 9.63 17.08C9.75 17.13 9.85999 17.2 9.95999 17.29C10.14 17.48 10.25 17.74 10.25 18C10.25 18.26 10.14 18.52 9.95999 18.71C9.85999 18.8 9.75 18.87 9.63 18.92C9.51 18.97 9.38 19 9.25 19Z" fill="#6F6F6F"/>
</svg>
