<svg width="40" height="41" viewBox="0 0 40 41" fill="none" xmlns="http://www.w3.org/2000/svg">
<path d="M20 1C30.7696 1 39.5 9.73045 39.5 20.5C39.5 31.2696 30.7696 40 20 40C9.23045 40 0.5 31.2696 0.5 20.5C0.5 9.73045 9.23045 1 20 1Z" fill="#FAFAFA"/>
<path d="M20 1C30.7696 1 39.5 9.73045 39.5 20.5C39.5 31.2696 30.7696 40 20 40C9.23045 40 0.5 31.2696 0.5 20.5C0.5 9.73045 9.23045 1 20 1Z" stroke="#EEEEEE"/>
<path d="M27 15.5868V26.8621C27 28.3013 25.96 28.9067 24.69 28.2119L20.76 26.0383C20.34 25.81 19.66 25.81 19.24 26.0383L15.31 28.2119C14.04 28.9067 13 28.3013 13 26.8621V15.5868C13 13.8895 14.4 12.5 16.11 12.5H23.89C25.6 12.5 27 13.8895 27 15.5868Z" stroke="#B1B1B1" stroke-width="1.5" stroke-linecap="round" stroke-linejoin="round"/>
</svg>
