<svg width="30" height="24" viewBox="0 0 30 24" fill="none" xmlns="http://www.w3.org/2000/svg">
<path fill-rule="evenodd" clip-rule="evenodd" d="M15 6.26963C19.5458 6.26963 23.2645 9.93801 23.2645 14.4203V18.829H6.73548V14.4203C6.73548 9.93714 10.4551 6.26963 15 6.26963ZM14.3204 0.670244C14.3204 0.299638 14.6251 0 15 0C15.3749 0 15.6796 0.300515 15.6796 0.670244V3.64648C15.6796 4.01621 15.3749 4.31672 15 4.31672C14.6251 4.31672 14.3204 4.01621 14.3204 3.64648V0.670244ZM1.1796 14.9705C0.804712 14.9705 0.5 14.67 0.5 14.3003C0.5 13.9306 0.804712 13.6301 1.1796 13.6301H4.1974C4.5723 13.6301 4.87701 13.9306 4.87701 14.3003C4.87701 14.6709 4.5723 14.9705 4.1974 14.9705H1.1796ZM2.69161 8.06396C2.36736 7.87909 2.2572 7.46994 2.44465 7.15015C2.63209 6.83036 3.04696 6.72172 3.37122 6.90658L5.98481 8.39426C6.30906 8.57913 6.41922 8.98828 6.23177 9.30807C6.04433 9.62786 5.62946 9.7365 5.3052 9.55164L2.69161 8.06308V8.06396ZM7.50392 2.82904C7.31736 2.50925 7.4293 2.10185 7.75355 1.91786C8.07781 1.73387 8.4909 1.84427 8.67746 2.16406L10.1859 4.74165C10.3725 5.06144 10.2605 5.46972 9.93628 5.65283C9.61203 5.83594 9.19805 5.72643 9.01238 5.40664L7.50392 2.82904ZM28.8204 13.6301C29.1953 13.6301 29.5 13.9306 29.5 14.3003C29.5 14.6709 29.1953 14.9705 28.8204 14.9705H25.8026C25.4277 14.9705 25.123 14.67 25.123 14.3003C25.123 13.9306 25.4277 13.6301 25.8026 13.6301H28.8204ZM26.6288 6.90658C26.953 6.72172 27.3679 6.83036 27.5554 7.15015C27.7428 7.46994 27.6326 7.87909 27.3084 8.06396L24.6948 9.55251C24.3705 9.73738 23.9557 9.62874 23.7682 9.30895C23.5808 8.98916 23.6909 8.58 24.0152 8.39514L26.6288 6.90746V6.90658ZM21.3234 2.16406C21.51 1.84427 21.9231 1.73387 22.2473 1.91786C22.5716 2.10097 22.6835 2.50925 22.497 2.82904L20.9885 5.40664C20.8028 5.72643 20.3889 5.83682 20.0646 5.65283C19.7404 5.46972 19.6284 5.06144 19.815 4.74165L21.3234 2.16406ZM6.68573 20.1695H23.3143C24.3412 20.1695 25.1816 20.9984 25.1816 22.0112V24H4.81749V22.0112C4.81749 20.9984 5.65789 20.1695 6.68484 20.1695H6.68573ZM10.7962 14.4203C10.7962 14.7901 10.4915 15.0906 10.1166 15.0906C9.74173 15.0906 9.43702 14.7901 9.43702 14.4203C9.43702 12.9107 10.0624 11.5387 11.0707 10.5452C12.079 9.55076 13.4693 8.93396 15 8.93396C15.3749 8.93396 15.6796 9.23448 15.6796 9.60421C15.6796 9.97394 15.3749 10.2745 15 10.2745C13.8451 10.2745 12.7942 10.7406 12.032 11.4923C11.2697 12.244 10.7962 13.2805 10.7962 14.4195V14.4203Z" fill="white"/>
</svg>
