<svg width="33" height="36" viewBox="0 0 33 36" fill="none" xmlns="http://www.w3.org/2000/svg">
<g clip-path="url(#clip0_354_227)">
<path fill-rule="evenodd" clip-rule="evenodd" d="M5.07302 25.7605V1.00563C5.10812 0.44045 5.57604 0 6.14534 0C6.71464 0 7.18256 0.44045 7.21765 1.00563V25.7605H5.07692H5.07302Z" fill="#5C4178"/>
<path fill-rule="evenodd" clip-rule="evenodd" d="M32.8869 16.8502C32.8128 16.78 32.7153 16.7371 32.6101 16.7371H31.2687V16.5422C31.2648 16.168 30.9645 15.8679 30.5902 15.864H13.4332C13.0588 15.864 12.7547 16.168 12.7547 16.5422V16.7371H11.4133C11.1989 16.7371 11.0234 16.9125 11.0234 17.1269C11.0234 21.547 11.928 24.2832 13.7958 25.9242C14.9968 27 16.5838 27.5925 18.5335 27.8731C18.5257 28.0563 18.592 28.2395 18.7207 28.372C18.8493 28.5084 19.0248 28.5825 19.212 28.5825H24.788C24.9713 28.5786 25.139 28.5007 25.2637 28.372C25.3885 28.2395 25.4587 28.0563 25.4509 27.8731C27.4006 27.5925 28.9837 27 30.2393 25.9281C32.0837 24.2832 33 21.547 33 17.1269C33 17.0256 32.9571 16.9242 32.8869 16.8502ZM29.6895 25.3668C28.6289 26.314 27.2173 26.848 25.4509 27.1169C25.4587 26.9337 25.3924 26.7583 25.2676 26.6219C25.1429 26.4894 24.9713 26.4114 24.788 26.4075H19.212C19.0248 26.3997 18.8376 26.4777 18.7051 26.6102C18.5725 26.7466 18.5023 26.9298 18.514 27.1208C16.7476 26.8519 15.3322 26.3179 14.2754 25.3707C12.6494 23.9168 11.8033 21.4729 11.7682 17.5011H12.7157V17.696C12.7157 18.0702 13.0198 18.3742 13.3942 18.3742H30.5512C30.9256 18.3703 31.2297 18.0702 31.2297 17.696V17.5011H32.1967C32.146 21.469 31.3155 23.9169 29.6895 25.3668Z" fill="#5C4178"/>
<path fill-rule="evenodd" clip-rule="evenodd" d="M13.8738 15.1273C13.9947 14.2153 14.6615 13.4747 15.5544 13.2525C15.3166 12.8471 15.1918 12.3833 15.1957 11.9156C15.1957 10.8359 15.8352 9.86531 16.8295 9.44435C17.8199 9.02339 18.9702 9.23777 19.7423 9.99004C20.0737 9.81075 20.4442 9.7133 20.8185 9.7133C21.2318 9.7133 21.6374 9.83024 21.9883 10.0485C22.234 9.46384 22.776 9.05847 23.3999 8.97662C24.0276 8.89477 24.6515 9.15592 25.0376 9.65873C25.5679 9.28844 26.2542 9.23777 26.8352 9.51841C27.4162 9.80295 27.7944 10.3759 27.8334 11.023H27.9972C28.8082 11.0074 29.5413 11.4946 29.8415 12.2508C30.1418 13.003 29.9429 13.8644 29.3463 14.4101C29.6076 14.5933 29.8143 14.8389 29.9468 15.1273H13.8699H13.8738Z" fill="#DDAD26"/>
<path fill-rule="evenodd" clip-rule="evenodd" d="M30.2237 19.1342L29.4984 24.5015C29.397 24.6067 29.2956 24.7081 29.1865 24.8055C28.2506 25.5695 27.1315 26.0723 25.9383 26.2672C25.6693 25.8852 25.2364 25.6592 24.7685 25.6592H19.212C18.748 25.663 18.3112 25.8891 18.0422 26.2672C16.8529 26.0723 15.7338 25.5695 14.7979 24.8055C14.6888 24.7081 14.5835 24.6067 14.486 24.5015L13.7529 19.1342H30.2237Z" fill="#5C4178"/>
<path fill-rule="evenodd" clip-rule="evenodd" d="M29.0851 27.573C28.1258 28.0407 27.1003 28.3681 26.0475 28.5397C25.8018 29.0191 25.3066 29.3231 24.7685 29.3192H19.212C18.6739 29.3231 18.1748 29.0191 17.933 28.5397C16.8802 28.3681 15.8547 28.0446 14.8954 27.573L15.882 34.8892C15.9638 35.5245 16.5019 35.9961 17.1414 35.9922H26.8352C27.4747 35.9922 28.0167 35.5245 28.0985 34.8892L29.0851 27.573Z" fill="#5C4178"/>
<path fill-rule="evenodd" clip-rule="evenodd" d="M13.5502 6.05718C14.0103 6.05718 14.4197 6.33392 14.5952 6.75878C14.7706 7.18364 14.6732 7.67087 14.3456 7.99438C14.022 8.3179 13.5346 8.41534 13.1095 8.23605C12.6845 8.06065 12.4077 7.64748 12.4077 7.18754C12.4077 6.88741 12.5285 6.59508 12.743 6.3846C12.9575 6.17411 13.246 6.05328 13.5502 6.05328V6.05718Z" fill="#DDAD26"/>
<path fill-rule="evenodd" clip-rule="evenodd" d="M23.0099 1.89044C23.5168 1.89044 23.977 2.19447 24.1719 2.6622C24.3669 3.12994 24.2616 3.67173 23.9029 4.03033C23.5441 4.38893 23.006 4.49806 22.5381 4.30707C22.0663 4.11608 21.7582 3.66004 21.7582 3.15333C21.7582 2.45952 22.3197 1.89824 23.0138 1.89824V1.89044H23.0099Z" fill="#DDAD26"/>
<path fill-rule="evenodd" clip-rule="evenodd" d="M30.4498 6.56778C30.8125 6.56778 31.1439 6.78606 31.2804 7.12516C31.4208 7.46037 31.3428 7.85015 31.0854 8.10741C30.8281 8.36466 30.442 8.44262 30.1028 8.3023C29.7675 8.16198 29.5452 7.83456 29.5452 7.47207C29.5452 7.2343 29.6388 7.00433 29.8065 6.83283C29.9741 6.66133 30.2042 6.56778 30.4459 6.57168L30.4498 6.56778Z" fill="#DDAD26"/>
<path fill-rule="evenodd" clip-rule="evenodd" d="M2.61645 26.54H9.67033C10.1967 26.54 10.6257 26.961 10.6335 27.4872V29.5335H1.66501V27.4872C1.67281 26.9649 2.09394 26.5478 2.61645 26.54Z" fill="#5C4178"/>
<path fill-rule="evenodd" clip-rule="evenodd" d="M0.397731 35.9922H2.27331C2.52286 35.2516 2.71783 34.4954 2.8699 33.7276C3.03368 32.8896 3.15066 32.0437 3.22084 31.194C3.24424 30.9952 3.41191 30.8471 3.61078 30.851C3.80964 30.8744 3.95782 31.042 3.95392 31.2408C3.89153 32.1256 3.77845 33.0026 3.61468 33.8718C3.4743 34.589 3.29103 35.2984 3.06877 35.9922H4.72208C4.79227 35.2906 4.85076 34.5422 4.89755 33.7783C4.94825 32.9207 4.98334 32.0554 5.00284 31.2135C5.01843 31.0069 5.19 30.851 5.39277 30.851C5.59943 30.8666 5.75541 31.0381 5.75541 31.2408C5.73591 32.11 5.70082 32.987 5.65012 33.8289C5.60333 34.5734 5.54874 35.3062 5.47855 36H6.83162C6.76143 35.3062 6.70684 34.5734 6.66005 33.8289C6.60936 32.987 6.57426 32.11 6.55087 31.2408C6.55087 31.0342 6.71074 30.8627 6.91741 30.851C7.12407 30.851 7.29174 31.0108 7.30734 31.2135C7.33073 32.0554 7.36583 32.9207 7.41652 33.7783C7.46331 34.5578 7.5218 35.2906 7.59199 35.9922H9.2414C9.01524 35.2984 8.83197 34.589 8.6838 33.8718C8.51223 33.0065 8.39135 32.1334 8.31726 31.2525C8.34456 31.0732 8.49273 30.9407 8.6721 30.9251C8.85147 30.9095 9.01914 31.0225 9.07373 31.194C9.14392 32.0437 9.2609 32.8896 9.42857 33.7276C9.58065 34.4915 9.77561 35.2516 10.0252 35.9922H11.9007C12.0294 35.9844 12.1464 35.9142 12.2127 35.8012C12.279 35.6882 12.2829 35.5517 12.2283 35.4348C11.347 33.8484 10.8167 32.0944 10.6686 30.2858H1.61822C1.47395 32.0944 0.943637 33.8484 0.0584899 35.4348C-0.0194966 35.5517 -0.0194966 35.7077 0.0584899 35.8246C0.132577 35.9415 0.261255 36.0039 0.397731 35.9922Z" fill="#DDAD26"/>
</g>
<defs>
<clipPath id="clip0_354_227">
<rect width="33" height="36" fill="white"/>
</clipPath>
</defs>
</svg>
