<svg width="40" height="40" viewBox="0 0 40 40" fill="none" xmlns="http://www.w3.org/2000/svg">
<path d="M20 0.5C30.7696 0.5 39.5 9.23045 39.5 20C39.5 30.7696 30.7696 39.5 20 39.5C9.23045 39.5 0.5 30.7696 0.5 20C0.5 9.23045 9.23045 0.5 20 0.5Z" fill="white"/>
<path d="M20 0.5C30.7696 0.5 39.5 9.23045 39.5 20C39.5 30.7696 30.7696 39.5 20 39.5C9.23045 39.5 0.5 30.7696 0.5 20C0.5 9.23045 9.23045 0.5 20 0.5Z" stroke="#EEEEEE"/>
<path opacity="0.4" d="M29 30H11C10.59 30 10.25 29.66 10.25 29.25C10.25 28.84 10.59 28.5 11 28.5H29C29.41 28.5 29.75 28.84 29.75 29.25C29.75 29.66 29.41 30 29 30Z" fill="#5C4178"/>
<path opacity="0.4" d="M27.02 11.48C25.08 9.54004 23.18 9.49004 21.19 11.48L19.98 12.69C19.88 12.79 19.84 12.95 19.88 13.09C20.64 15.74 22.76 17.86 25.41 18.62C25.45 18.63 25.49 18.64 25.53 18.64C25.64 18.64 25.74 18.6 25.82 18.52L27.02 17.31C28.01 16.33 28.49 15.38 28.49 14.42C28.5 13.43 28.02 12.47 27.02 11.48Z" fill="#5C4178"/>
<path d="M23.61 19.53C23.32 19.39 23.04 19.25 22.77 19.09C22.55 18.96 22.34 18.82 22.13 18.67C21.96 18.56 21.76 18.4 21.57 18.24C21.55 18.23 21.48 18.17 21.4 18.09C21.07 17.81 20.7 17.45 20.37 17.05C20.34 17.03 20.29 16.96 20.22 16.87C20.12 16.75 19.95 16.55 19.8 16.32C19.68 16.17 19.54 15.95 19.41 15.73C19.25 15.46 19.11 15.19 18.97 14.91C18.83 14.61 18.72 14.32 18.62 14.05L12.34 20.33C12.21 20.46 12.09 20.71 12.06 20.88L11.52 24.71C11.42 25.39 11.61 26.03 12.03 26.46C12.39 26.81 12.89 27 13.43 27C13.55 27 13.67 26.99 13.79 26.97L17.63 26.43C17.81 26.4 18.06 26.28 18.18 26.15L24.46 19.87C24.18 19.77 23.91 19.66 23.61 19.53Z" fill="#5C4178"/>
</svg>
