<svg width="37" height="36" viewBox="0 0 37 36" fill="none" xmlns="http://www.w3.org/2000/svg">
<g clip-path="url(#clip0_355_250)">
<path d="M9.25433 15.2356C9.25433 16.0769 9.94798 16.7637 10.7977 16.7637H26.2312C27.0809 16.7637 27.7746 16.0769 27.7746 15.2356C27.7746 14.3943 27.0809 13.7075 26.2312 13.7075H10.7977C9.94219 13.7075 9.25433 14.3943 9.25433 15.2356Z" fill="#5C4178"/>
<path d="M13.8786 4.53864C13.0289 4.53864 12.3353 5.22544 12.3353 6.06678V12.1793H15.422V6.06678C15.422 4.71034 14.3064 4.53864 13.8786 4.53864Z" fill="#DDAD26"/>
<path d="M23.1387 4.53864C22.289 4.53864 21.5954 5.22544 21.5954 6.06678V12.1793H24.6821V6.06678C24.6821 4.73323 23.5665 4.53864 23.1387 4.53864Z" fill="#DDAD26"/>
<path d="M18.5087 27.4607C22.3468 27.4607 25.4509 24.3816 25.4509 20.587V18.2976H11.5665V20.587C11.5665 24.3816 14.6763 27.4607 18.5087 27.4607Z" fill="#5C4178"/>
<path d="M20.052 28.8401C19.5491 28.9317 19.0347 28.9832 18.5087 28.9832C17.9827 28.9832 17.4682 28.9259 16.9653 28.8401V31.2782H20.052V28.8401Z" fill="#5C4178"/>
<path d="M30.8613 4.63021C25.3295 -0.240375 17.0751 -1.43084 10.3757 1.84293C7.3815 3.30811 4.76878 5.5574 2.95375 8.33323C0.0751417 12.746 -0.763009 18.4121 0.728321 23.4544C2.21965 28.4967 6.00578 32.8235 10.8381 34.9984C11.3237 35.2159 12.0289 35.359 12.2948 34.9011C12.6185 34.3517 11.896 33.7908 11.3121 33.5218C5.71676 30.9291 1.79769 25.1027 1.54335 18.9901C1.28323 12.8776 4.69942 6.75358 10.0578 3.70875C15.4162 0.663917 22.4855 0.841342 27.6821 4.14945C32.8786 7.45756 35.9769 13.7475 35.4104 19.8372C34.8439 25.9269 30.6358 31.5529 24.9133 33.8595C23.9884 34.2315 22.9942 34.5291 22 34.4261C21.0058 34.3231 20.0116 33.7336 19.6821 32.7949C19.1214 32.7949 18.5665 32.7949 18.0058 32.7949C18.5376 34.5005 20.1676 35.8111 21.9653 35.9771C23.1156 36.0801 24.2601 35.7596 25.3295 35.3361C30.8786 33.1555 35.2139 28.159 36.5491 22.3956C37.8902 16.6321 36.1965 10.2677 32.1676 5.9008C31.7514 5.44866 31.3121 5.02513 30.8613 4.62449V4.63021Z" fill="#5C4178"/>
</g>
<defs>
<clipPath id="clip0_355_250">
<rect width="37" height="36" fill="white"/>
</clipPath>
</defs>
</svg>
