<svg width="40" height="39" viewBox="0 0 40 39" fill="none" xmlns="http://www.w3.org/2000/svg">
<path d="M0 19.5C0 8.73045 8.73045 0 19.5 0H20.5C31.2696 0 40 8.73045 40 19.5C40 30.2696 31.2696 39 20.5 39H19.5C8.73045 39 0 30.2696 0 19.5Z" fill="#EEEEEE"/>
<path d="M21.7338 10.9386L23.4943 14.4839C23.7343 14.9674 24.3745 15.4508 24.908 15.5314L28.0955 16.0686C30.136 16.4177 30.6161 17.8949 29.1491 19.3722L26.6684 21.8834C26.255 22.2997 26.0149 23.1189 26.1483 23.7098L26.8551 26.8119C27.4153 29.2561 26.1216 30.2095 23.9744 28.9337L20.9869 27.1477C20.4401 26.8254 19.5599 26.8254 19.0131 27.1477L16.0123 28.9203C13.865 30.1961 12.5714 29.2426 13.1315 26.7985L13.8384 23.6964C13.9717 23.1189 13.7317 22.2997 13.3182 21.87L10.8509 19.3856C9.38386 17.9084 9.86399 16.4177 11.9045 16.082L15.092 15.5448C15.6255 15.4508 16.2657 14.9808 16.5057 14.4973L18.2662 10.952C19.2131 9.01823 20.7869 9.01823 21.7338 10.9386Z" fill="#5C4178"/>
</svg>
