<svg width="40" height="40" viewBox="0 0 40 40" fill="none" xmlns="http://www.w3.org/2000/svg">
<path d="M0 20C0 8.95431 8.95431 0 20 0C31.0457 0 40 8.95431 40 20C40 31.0457 31.0457 40 20 40C8.95431 40 0 31.0457 0 20Z" fill="#EEEEEE"/>
<path d="M30 30.75H10C9.59 30.75 9.25 30.41 9.25 30C9.25 29.59 9.59 29.25 10 29.25H30C30.41 29.25 30.75 29.59 30.75 30C30.75 30.41 30.41 30.75 30 30.75Z" fill="#5C4178"/>
<path opacity="0.4" d="M29 17.9799V29.9999H10.95L11 17.9699C11 17.3599 11.28 16.78 11.77 16.4L18.77 10.96C19.49 10.39 20.5099 10.39 21.2299 10.96L22.57 11.9999L27 15.44L28.23 16.4C28.72 16.78 29 17.3599 29 17.9799Z" fill="#5C4178"/>
<path d="M21 25H19C18.17 25 17.5 25.67 17.5 26.5V30H22.5V26.5C22.5 25.67 21.83 25 21 25Z" fill="#5C4178"/>
<path d="M17.5 21.75H15.5C14.95 21.75 14.5 21.3 14.5 20.75V19.25C14.5 18.7 14.95 18.25 15.5 18.25H17.5C18.05 18.25 18.5 18.7 18.5 19.25V20.75C18.5 21.3 18.05 21.75 17.5 21.75Z" fill="#5C4178"/>
<path d="M24.5 21.75H22.5C21.95 21.75 21.5 21.3 21.5 20.75V19.25C21.5 18.7 21.95 18.25 22.5 18.25H24.5C25.05 18.25 25.5 18.7 25.5 19.25V20.75C25.5 21.3 25.05 21.75 24.5 21.75Z" fill="#5C4178"/>
<path d="M27.0001 15.44L22.5701 12H25.9801C26.5301 12 26.9801 12.44 26.9801 12.99L27.0001 15.44Z" fill="#5C4178"/>
</svg>
