<svg width="16" height="16" viewBox="0 0 16 16" fill="none" xmlns="http://www.w3.org/2000/svg">
<path opacity="0.4" d="M13.7467 5.63332C13.0467 2.55332 10.36 1.16666 8 1.16666C8 1.16666 8 1.16666 7.99334 1.16666C5.64 1.16666 2.94667 2.54666 2.24667 5.62666C1.46667 9.06666 3.57334 11.98 5.48 13.8133C6.18667 14.4933 7.09334 14.8333 8 14.8333C8.90667 14.8333 9.81334 14.4933 10.5133 13.8133C12.42 11.98 14.5267 9.07332 13.7467 5.63332Z" fill="#6F6F6F"/>
<path d="M8 8.97335C9.1598 8.97335 10.1 8.03314 10.1 6.87335C10.1 5.71355 9.1598 4.77335 8 4.77335C6.8402 4.77335 5.9 5.71355 5.9 6.87335C5.9 8.03314 6.8402 8.97335 8 8.97335Z" fill="#6F6F6F"/>
</svg>
