<svg width="40" height="41" viewBox="0 0 40 41" fill="none" xmlns="http://www.w3.org/2000/svg">
<path d="M0 20.5C0 9.45431 8.95431 0.5 20 0.5C31.0457 0.5 40 9.45431 40 20.5C40 31.5457 31.0457 40.5 20 40.5C8.95431 40.5 0 31.5457 0 20.5Z" fill="#EEEEEE"/>
<path opacity="0.6" d="M18.11 12.5C18.03 12.8 18 13.13 18 13.5V16.5H13V14.5C13 13.4 13.9 12.5 15 12.5H18.11Z" fill="#5C4178"/>
<path d="M18 27.5V16.5H13C11 16.5 10 17.5 10 19.5V27.5C10 29.5 11 30.5 13 30.5H21C19 30.5 18 29.5 18 27.5ZM14.75 25.5C14.75 25.91 14.41 26.25 14 26.25C13.59 26.25 13.25 25.91 13.25 25.5V21.5C13.25 21.09 13.59 20.75 14 20.75C14.41 20.75 14.75 21.09 14.75 21.5V25.5Z" fill="#5C4178"/>
<path opacity="0.4" d="M22 30.5H21C19 30.5 18 29.5 18 27.5V13.5C18 11.5 19 10.5 21 10.5H27C29 10.5 30 11.5 30 13.5V27.5C30 29.5 29 30.5 27 30.5H26" fill="#5C4178"/>
<path d="M26 26.5V30.5H22V26.5C22 25.95 22.45 25.5 23 25.5H25C25.55 25.5 26 25.95 26 26.5Z" fill="#5C4178"/>
<path d="M22 22.25C21.59 22.25 21.25 21.91 21.25 21.5V16.5C21.25 16.09 21.59 15.75 22 15.75C22.41 15.75 22.75 16.09 22.75 16.5V21.5C22.75 21.91 22.41 22.25 22 22.25Z" fill="#5C4178"/>
<path d="M26 22.25C25.59 22.25 25.25 21.91 25.25 21.5V16.5C25.25 16.09 25.59 15.75 26 15.75C26.41 15.75 26.75 16.09 26.75 16.5V21.5C26.75 21.91 26.41 22.25 26 22.25Z" fill="#5C4178"/>
</svg>
