<svg width="25" height="25" viewBox="0 0 25 25" fill="none" xmlns="http://www.w3.org/2000/svg">
<path opacity="0.4" d="M18.29 14.05C17.87 14.46 17.63 15.05 17.69 15.68C17.78 16.76 18.77 17.55 19.85 17.55H21.75V18.74C21.75 20.81 20.06 22.5 17.99 22.5H6.51C4.44 22.5 2.75 20.81 2.75 18.74V12.01C2.75 9.94001 4.44 8.25 6.51 8.25H17.99C20.06 8.25 21.75 9.94001 21.75 12.01V13.45H19.73C19.17 13.45 18.66 13.67 18.29 14.05Z" fill="#6F6F6F"/>
<path d="M15.1 4.45V8.24999H6.51C4.44 8.24999 2.75 9.94 2.75 12.01V8.34002C2.75 7.15002 3.48 6.08997 4.59 5.66997L12.53 2.66997C13.77 2.20997 15.1 3.12 15.1 4.45Z" fill="#6F6F6F"/>
<path d="M22.81 14.4699V16.53C22.81 17.08 22.37 17.5299 21.81 17.5499H19.85C18.77 17.5499 17.78 16.7599 17.69 15.6799C17.63 15.0499 17.87 14.4599 18.29 14.0499C18.66 13.6699 19.17 13.45 19.73 13.45H21.81C22.37 13.47 22.81 13.9199 22.81 14.4699Z" fill="#6F6F6F"/>
<path d="M14.25 13.25H7.25C6.84 13.25 6.5 12.91 6.5 12.5C6.5 12.09 6.84 11.75 7.25 11.75H14.25C14.66 11.75 15 12.09 15 12.5C15 12.91 14.66 13.25 14.25 13.25Z" fill="#6F6F6F"/>
</svg>
