<svg width="40" height="41" viewBox="0 0 40 41" fill="none" xmlns="http://www.w3.org/2000/svg">
<path d="M20 1C30.7696 1 39.5 9.73045 39.5 20.5C39.5 31.2696 30.7696 40 20 40C9.23045 40 0.5 31.2696 0.5 20.5C0.5 9.73045 9.23045 1 20 1Z" fill="#FAFAFA"/>
<path d="M20 1C30.7696 1 39.5 9.73045 39.5 20.5C39.5 31.2696 30.7696 40 20 40C9.23045 40 0.5 31.2696 0.5 20.5C0.5 9.73045 9.23045 1 20 1Z" stroke="#EEEEEE"/>
<path opacity="0.4" d="M15.1099 14.46L24.1299 11.45C28.1799 10.1 30.3799 12.31 29.0399 16.36L26.0299 25.38C24.0099 31.45 20.6899 31.45 18.6699 25.38L17.7799 22.7L15.0999 21.81C9.0399 19.8 9.0399 16.49 15.1099 14.46Z" fill="#5C4178"/>
<path d="M20.1201 20.13L23.9301 16.31L20.1201 20.13Z" fill="#5C4178"/>
<path d="M20.1201 20.88C19.9301 20.88 19.7401 20.81 19.5901 20.66C19.3001 20.37 19.3001 19.89 19.5901 19.6L23.3901 15.78C23.6801 15.49 24.1601 15.49 24.4501 15.78C24.7401 16.07 24.7401 16.55 24.4501 16.84L20.6501 20.66C20.5001 20.8 20.3101 20.88 20.1201 20.88Z" fill="#5C4178"/>
</svg>
