<svg width="44" height="44" viewBox="0 0 44 44" fill="none" xmlns="http://www.w3.org/2000/svg">
<rect width="44" height="44" rx="22" fill="#5C4178"/>
<path opacity="0.4" d="M17.1099 15.9598L26.1299 12.9498C30.1799 11.5998 32.3799 13.8098 31.0399 17.8598L28.0299 26.8798C26.0099 32.9498 22.6899 32.9498 20.6699 26.8798L19.7799 24.1998L17.0999 23.3098C11.0399 21.2998 11.0399 17.9898 17.1099 15.9598Z" fill="white"/>
<path d="M22.1201 21.6301L25.9301 17.8101L22.1201 21.6301Z" fill="white"/>
<path d="M22.1201 22.38C21.9301 22.38 21.7401 22.31 21.5901 22.16C21.3001 21.87 21.3001 21.39 21.5901 21.1L25.3901 17.28C25.6801 16.99 26.1601 16.99 26.4501 17.28C26.7401 17.57 26.7401 18.05 26.4501 18.34L22.6501 22.16C22.5001 22.3 22.3101 22.38 22.1201 22.38Z" fill="white"/>
</svg>
