<svg width="24" height="24" viewBox="0 0 24 24" fill="none" xmlns="http://www.w3.org/2000/svg">
<path opacity="0.4" d="M21.23 7.62001H15.69C15.31 7.62001 15 7.31001 15 6.92001C15 6.54001 15.31 6.23001 15.69 6.23001H21.23C21.61 6.23001 21.92 6.54001 21.92 6.92001C21.92 7.31001 21.61 7.62001 21.23 7.62001Z" fill="#5C4178"/>
<path opacity="0.4" d="M6.45999 7.61999H2.76999C2.38999 7.61999 2.07999 7.30999 2.07999 6.92999C2.07999 6.54999 2.38999 6.23999 2.76999 6.23999H6.45999C6.83999 6.23999 7.14999 6.54999 7.14999 6.92999C7.14999 7.30999 6.83999 7.61999 6.45999 7.61999Z" fill="#5C4178"/>
<path d="M10.15 10.84C12.315 10.84 14.07 9.08496 14.07 6.92C14.07 4.75504 12.315 3 10.15 3C7.98505 3 6.23001 4.75504 6.23001 6.92C6.23001 9.08496 7.98505 10.84 10.15 10.84Z" fill="#5C4178"/>
<path opacity="0.4" d="M21.23 17.77H17.54C17.16 17.77 16.85 17.46 16.85 17.08C16.85 16.7 17.16 16.39 17.54 16.39H21.23C21.61 16.39 21.92 16.7 21.92 17.08C21.92 17.46 21.61 17.77 21.23 17.77Z" fill="#5C4178"/>
<path opacity="0.4" d="M8.30999 17.77H2.76999C2.38999 17.77 2.07999 17.46 2.07999 17.08C2.07999 16.7 2.38999 16.39 2.76999 16.39H8.30999C8.68999 16.39 8.99999 16.7 8.99999 17.08C8.99999 17.46 8.68999 17.77 8.30999 17.77Z" fill="#5C4178"/>
<path d="M13.85 21C16.0149 21 17.77 19.245 17.77 17.08C17.77 14.915 16.0149 13.16 13.85 13.16C11.685 13.16 9.92999 14.915 9.92999 17.08C9.92999 19.245 11.685 21 13.85 21Z" fill="#5C4178"/>
</svg>
