<svg width="16" height="17" viewBox="0 0 16 17" fill="none" xmlns="http://www.w3.org/2000/svg">
<path opacity="0.4" d="M7.16667 2.13338C7.62667 1.74005 8.38 1.74005 8.84667 2.13338L9.9 3.04005C10.1 3.21338 10.4733 3.35338 10.74 3.35338H11.8733C12.58 3.35338 13.16 3.93338 13.16 4.64005V5.77338C13.16 6.03338 13.3 6.41338 13.4733 6.61338L14.38 7.66671C14.7733 8.12671 14.7733 8.88005 14.38 9.34671L13.4733 10.4C13.3 10.6 13.16 10.9734 13.16 11.24V12.3734C13.16 13.08 12.58 13.66 11.8733 13.66H10.74C10.48 13.66 10.1 13.8 9.9 13.9734L8.84667 14.88C8.38667 15.2734 7.63334 15.2734 7.16667 14.88L6.11334 13.9734C5.91334 13.8 5.54 13.66 5.27334 13.66H4.12C3.41334 13.66 2.83334 13.08 2.83334 12.3734V11.2334C2.83334 10.9734 2.69334 10.6 2.52667 10.4L1.62667 9.34005C1.24 8.88005 1.24 8.13338 1.62667 7.67338L2.52667 6.61338C2.69334 6.41338 2.83334 6.04005 2.83334 5.78005V4.63338C2.83334 3.92671 3.41334 3.34671 4.12 3.34671H5.27334C5.53334 3.34671 5.91334 3.20671 6.11334 3.03338L7.16667 2.13338Z" fill="#5C4178"/>
<path d="M7.19333 10.6134C7.06 10.6134 6.93333 10.56 6.84 10.4667L5.22667 8.85335C5.03333 8.66002 5.03333 8.34002 5.22667 8.14669C5.42 7.95335 5.74 7.95335 5.93333 8.14669L7.19333 9.40669L10.06 6.54002C10.2533 6.34669 10.5733 6.34669 10.7667 6.54002C10.96 6.73335 10.96 7.05335 10.7667 7.24669L7.54666 10.4667C7.45333 10.56 7.32667 10.6134 7.19333 10.6134Z" fill="#5C4178"/>
</svg>
